<svg width="507" height="404" viewBox="0 0 507 404" fill="none" xmlns="http://www.w3.org/2000/svg">
<path d="M250.087 2.89172C132.636 2.89172 36.5341 94.4442 29.4176 210.114C28.9547 217.574 34.972 223.936 42.4356 223.936H457.739C465.26 223.936 471.22 217.632 470.757 210.114C463.64 94.4442 367.596 2.89172 250.087 2.89172Z" fill="#FFAE39"/>
<path d="M61.761 108.151C61.761 108.151 83.6312 173.042 186.445 196.985C255.874 213.179 431.993 203.636 469.311 194.787C469.311 194.787 475.791 209.767 469.311 216.823C462.831 223.878 440.209 223.705 440.209 223.705H229.549H63.2074L36.7664 222.548C36.7664 222.548 26.2363 217.806 29.3606 200.976C32.4849 184.146 43.9986 143.488 43.9986 143.488L61.761 108.151Z" fill="#FFD176"/>
<path d="M49.1459 284.489C33.9872 284.489 19.7542 269.279 18.3656 254.936C16.2248 233.363 31.9043 231.339 36.8801 231.339H472.434C478.393 231.339 488.692 241.865 488.634 257.365C488.576 273.154 471.971 284.489 455.365 284.489H49.1459Z" fill="#892A00" stroke="#780116" stroke-miterlimit="10"/>
<path d="M429.274 403.108H64.8855C45.0981 403.108 29.0137 387.03 29.0137 367.251V362.335C29.0137 357.997 32.543 354.469 36.8823 354.469H464.509C468.212 354.469 471.221 357.477 471.221 361.178C471.221 384.312 452.417 403.108 429.274 403.108Z" fill="#FFAE39" stroke="#780116" stroke-miterlimit="10"/>
<path d="M37.6343 354.469C37.6343 354.469 26.6992 340.705 25.0792 325.263C24.4427 319.364 28.1456 314.101 32.89 314.101H466.939C472.609 314.101 476.949 320.289 476.428 327.345C475.734 336.136 473.072 347.298 464.567 354.469H37.6343Z" fill="#892A00" stroke="#780116" stroke-miterlimit="10"/>
<path d="M263.045 308.086C263.045 347.124 296.14 378.76 337.045 378.76C377.893 378.76 411.045 347.124 411.045 308.086C362.618 308.201 263.045 308.086 263.045 308.086Z" fill="#E21000" stroke="#780116" stroke-miterlimit="10"/>
<path d="M274.271 315.431C274.271 345.563 304.877 370.258 337.046 370.258C369.157 370.258 400.458 345.563 400.458 315.431C362.388 315.546 274.271 315.431 274.271 315.431Z" fill="#FF625A"/>
<path d="M285.378 329.369C289.833 343.943 300.942 356.898 316.216 361.93C319.051 362.855 322.118 363.491 325.01 362.971C329.986 361.988 331.78 358.055 331.78 353.602C331.78 340.473 331.78 327.287 331.78 314.158C331.78 305.83 315.233 303.054 308.868 303.054C299.495 303.054 285.783 306.929 284.163 317.339C283.584 321.156 284.105 325.262 285.378 329.369Z" fill="#E21000"/>
<path d="M389.81 329.369C385.991 342.497 373.957 354.643 362.038 360.484C353.128 364.822 339.3 366.441 339.3 353.891C339.3 340.531 339.3 327.171 339.3 313.753C339.3 305.252 357.178 302.476 364.063 302.476C374.188 302.476 389 306.466 390.735 316.992C391.372 321.099 391.025 325.263 389.81 329.369Z" fill="#E21000"/>
<path d="M299.386 338.762C302.039 336.925 303.437 334.35 302.509 333.011C301.581 331.672 298.678 332.076 296.025 333.913C293.372 335.75 291.974 338.325 292.902 339.664C293.83 341.003 296.733 340.599 299.386 338.762Z" fill="#FFB600"/>
<path opacity="0.43" d="M406.281 122.508C415.933 98.4337 376.632 60.0383 318.499 36.7493C260.366 13.4603 205.415 14.0967 195.763 38.1708C186.111 62.2448 225.412 100.64 283.545 123.929C341.678 147.218 396.629 146.582 406.281 122.508Z" fill="#FFE5B6"/>
<path d="M322.061 359.327C323.691 359.327 325.012 356.712 325.012 353.486C325.012 350.26 323.691 347.645 322.061 347.645C320.431 347.645 319.11 350.26 319.11 353.486C319.11 356.712 320.431 359.327 322.061 359.327Z" fill="#FFB600"/>
<path d="M314.408 351.491C315.714 348.541 315.564 345.615 314.074 344.956C312.583 344.297 310.317 346.154 309.011 349.104C307.705 352.055 307.855 354.98 309.345 355.64C310.835 356.299 313.102 354.441 314.408 351.491Z" fill="#FFB600"/>
<path d="M306.086 345.951C308.368 343.67 309.284 340.887 308.132 339.735C306.979 338.583 304.195 339.499 301.913 341.78C299.631 344.061 298.715 346.844 299.868 347.996C301.02 349.148 303.804 348.232 306.086 345.951Z" fill="#FFB600"/>
<path d="M348.56 361.294C350.158 361.294 351.453 358.575 351.453 355.221C351.453 351.867 350.158 349.148 348.56 349.148C346.962 349.148 345.667 351.867 345.667 355.221C345.667 358.575 346.962 361.294 348.56 361.294Z" fill="#FFB600"/>
<path d="M360.846 357.514C362.332 356.928 362.549 353.948 361.33 350.858C360.111 347.768 357.918 345.737 356.431 346.323C354.945 346.909 354.728 349.889 355.947 352.979C357.166 356.07 359.359 358.1 360.846 357.514Z" fill="#FFB600"/>
<path d="M372.121 350.439C373.339 349.357 372.571 346.505 370.406 344.07C368.241 341.634 365.498 340.537 364.28 341.619C363.062 342.702 363.829 345.553 365.995 347.988C368.16 350.424 370.902 351.521 372.121 350.439Z" fill="#FFB600"/>
<path d="M379.629 342.141C380.651 340.832 379.439 338.177 376.921 336.211C374.402 334.245 371.532 333.713 370.509 335.022C369.486 336.331 370.699 338.986 373.217 340.952C375.735 342.918 378.606 343.45 379.629 342.141Z" fill="#FFB600"/>
<path d="M202.822 46.4852C204.861 42.3976 204.799 38.2291 202.683 37.1744C200.567 36.1198 197.198 38.5784 195.159 42.6659C193.121 46.7535 193.183 50.922 195.299 51.9767C197.415 53.0314 200.784 50.5727 202.822 46.4852Z" fill="#FFEAAE"/>
<path d="M214.971 81.7899C217.01 77.7024 216.947 73.5338 214.831 72.4792C212.715 71.4245 209.347 73.8831 207.308 77.9707C205.269 82.0582 205.332 86.2268 207.448 87.2815C209.564 88.3361 212.932 85.8775 214.971 81.7899Z" fill="#FFEAAE"/>
<path d="M250.227 36.3284C252.266 32.2408 252.203 28.0723 250.087 27.0176C247.971 25.9629 244.603 28.4216 242.564 32.5091C240.525 36.5967 240.587 40.7653 242.704 41.8199C244.82 42.8746 248.188 40.4159 250.227 36.3284Z" fill="#FFEAAE"/>
<path d="M268.411 64.9331C271.909 61.9939 273.51 58.1445 271.989 56.3354C270.467 54.5263 266.398 55.4424 262.901 58.3816C259.404 61.3209 257.802 65.1702 259.323 66.9793C260.845 68.7885 264.914 67.8724 268.411 64.9331Z" fill="#FFEAAE"/>
<path d="M311.414 75.0694C313.779 75.0694 315.696 71.3667 315.696 66.7991C315.696 62.2315 313.779 58.5287 311.414 58.5287C309.05 58.5287 307.133 62.2315 307.133 66.7991C307.133 71.3667 309.05 75.0694 311.414 75.0694Z" fill="#FFEAAE"/>
<path d="M367.62 91.4636C368.75 87.0376 367.808 82.976 365.517 82.3917C363.225 81.8074 360.452 84.9217 359.323 89.3477C358.193 93.7737 359.135 97.8354 361.426 98.4197C363.717 99.0039 366.491 95.8896 367.62 91.4636Z" fill="#FFEAAE"/>
<path d="M348.348 59.5243C349.477 55.0983 348.535 51.0367 346.244 50.4524C343.953 49.8681 341.18 52.9824 340.05 57.4084C338.921 61.8344 339.862 65.896 342.154 66.4803C344.445 67.0646 347.218 63.9503 348.348 59.5243Z" fill="#FFEAAE"/>
<path d="M269.01 101.182C271.808 97.5708 272.56 93.4702 270.691 92.0229C268.821 90.5756 265.038 92.3298 262.24 95.941C259.442 99.5521 258.689 103.653 260.559 105.1C262.428 106.547 266.212 104.793 269.01 101.182Z" fill="#FFEAAE"/>
<path d="M240.824 74.4096C243 73.4838 243.313 69.3263 241.523 65.1237C239.733 60.921 236.518 58.2646 234.343 59.1905C232.167 60.1163 231.854 64.2738 233.644 68.4765C235.434 72.6791 238.649 75.3355 240.824 74.4096Z" fill="#FFEAAE"/>
<path d="M304.939 41.4066C304.971 36.839 303.08 33.1228 300.716 33.1062C298.351 33.0896 296.408 36.779 296.376 41.3466C296.344 45.9142 298.235 49.6304 300.6 49.6469C302.964 49.6635 304.907 45.9742 304.939 41.4066Z" fill="#FFEAAE"/>
<path d="M188.19 106.637C190.501 106.139 191.593 102.115 190.629 97.6498C189.664 93.1849 187.008 89.9699 184.697 90.4689C182.385 90.9679 181.294 94.9918 182.258 99.4567C183.223 103.922 185.879 107.136 188.19 106.637Z" fill="#FFEAAE"/>
<path d="M322.094 101.568C325.338 98.3517 326.618 94.3837 324.953 92.7055C323.288 91.0273 319.308 92.2744 316.064 95.4909C312.819 98.7074 311.539 102.675 313.204 104.354C314.87 106.032 318.85 104.785 322.094 101.568Z" fill="#FFEAAE"/>
<path d="M381.395 71.6926C382.92 69.8867 381.327 66.0338 377.836 63.0868C374.345 60.1397 370.278 59.2147 368.753 61.0205C367.227 62.8263 368.82 66.6793 372.311 69.6263C375.802 72.5733 379.869 73.4984 381.395 71.6926Z" fill="#FFEAAE"/>
<path d="M32.542 284.489H468.558L503.678 304.963C503.678 304.963 512.762 313.464 495.404 316.587C484.18 318.612 470.525 316.472 459.764 313.464C441.134 308.317 423.661 319.826 405.551 322.14C393.285 323.701 380.672 323.181 368.638 320.752C362.389 319.479 356.372 317.686 350.528 315.373C345.437 313.349 340.172 309.879 334.27 310.862C331.725 311.267 329.41 312.25 327.096 313.233C294.175 326.709 255.237 334.111 219.654 324.569C213.174 322.834 206.752 320.694 200.561 318.265C195.527 316.298 189.51 312.134 183.667 312.655C181.121 312.886 178.749 314.043 176.492 315.142C157.631 323.99 135.76 327.576 114.469 326.072C103.476 325.263 92.5405 323.123 82.2418 319.653C73.6789 316.761 62.8016 307.912 53.3129 311.035C45.2128 313.696 36.8813 315.951 28.4341 317.686C23.979 318.612 -4.71844 320.462 1.76163 310.283C6.62169 302.591 29.2441 289.463 32.542 284.489Z" fill="#2EBA00" stroke="#780116" stroke-miterlimit="10"/>
<path d="M35.2015 225.96C43.9959 223.705 53.4267 223.763 63.2047 223.82C83.9756 223.82 104.689 223.82 125.46 223.878C166.944 223.936 208.486 223.994 249.97 223.994C308.869 223.994 367.768 223.994 426.667 223.994C438.702 223.994 450.794 223.994 462.828 223.994C468.788 226.539 493.262 234.867 478.334 244.236C475.615 245.913 472.317 246.318 469.135 246.434C444.025 247.07 420.824 232.322 395.308 236.544C378.992 239.262 362.792 242.848 346.766 247.07C332.128 250.945 316.911 257.827 301.81 259.1C284.858 260.546 268.079 258.579 251.763 253.837C237.82 249.788 220.809 239.841 205.882 241.865C194.137 243.426 186.152 251.755 186.037 262.685C185.921 273.963 189.798 286.571 188.178 297.791C187.136 305.136 184.417 316.298 175.507 317.05C167.869 317.686 162.199 310.573 160.926 303.748C158.381 290.041 162.72 276.045 160.29 262.338C157.976 249.268 148.487 241.287 135.643 238.568C123.955 236.139 108.912 236.486 97.5722 240.535C88.2571 243.889 81.4877 252.16 71.0733 252.738C58.9811 253.374 48.3352 248.574 35.6644 251.292C31.0936 252.275 26.5228 253.837 21.8364 254.01C6.73548 254.589 8.3555 243.6 17.2077 235.619C22.8199 230.471 28.8372 227.58 35.2015 225.96Z" fill="#F9CF00" stroke="#780116" stroke-miterlimit="10"/>
<path d="M252.171 2.89172C134.72 2.89172 38.6181 94.4442 31.5016 210.114C31.0387 217.574 37.0559 223.936 44.5196 223.936H459.823C467.344 223.936 473.304 217.632 472.841 210.114C465.724 94.4442 369.623 2.89172 252.171 2.89172Z" stroke="#780116" stroke-miterlimit="10"/>
</svg>
