<svg width="468" height="551" viewBox="0 0 468 551" fill="none" xmlns="http://www.w3.org/2000/svg">
<path d="M194.696 184.914C172.524 213.173 148.149 239.752 121.902 263.901C91.6566 291.725 54.4418 316.806 31.2518 352.467C3.65793 394.902 -2.8762 444.477 26.7593 468.074C68.9209 501.59 188.917 439.717 277.908 327.65C366.896 215.411 416.086 53.9287 373.924 20.4125C355.656 5.89641 324.343 11.354 299.446 30.7857C268.452 55.0158 253.47 99.0102 232.74 131.309C220.927 149.773 208.246 167.68 194.696 184.914Z" fill="#FFAE39" stroke="#780116" stroke-miterlimit="10"/>
<path d="M51.7722 525.813C14.0073 498.52 32.7276 445.645 50.414 412.654C77.4166 362.386 120.107 322.957 161.21 284.356C201.412 246.572 237.209 205.429 262.916 156.385C285.633 113.06 348.861 -37.0395 420.51 14.7517C443.388 31.2502 448.51 63.2227 432.024 86.0604L123.028 514.293C106.541 537.131 74.6506 542.312 51.7722 525.813Z" fill="#9E2100" stroke="#780116" stroke-miterlimit="10"/>
<path d="M267.335 227.529C245.164 255.845 220.846 282.423 194.715 306.627C164.585 334.564 127.661 359.868 104.411 395.416C76.7012 437.739 69.6455 486.922 98.5268 509.902C139.586 542.521 258.423 479.809 347.414 367.684C436.404 255.56 486.869 95.0861 445.809 62.4099C428.063 48.2856 397.155 54.0798 372.433 73.6802C341.671 98.0781 326.342 141.849 305.495 174.036C293.624 192.444 280.885 210.294 267.335 227.529Z" fill="#FFAE39" stroke="#780116" stroke-miterlimit="10"/>
<path d="M276.314 200.582C295.233 229.801 316.588 257.603 340.255 283.42C367.479 313.183 402.221 341.044 421.146 377.304C443.736 420.486 443.744 467.888 410.197 486.666C362.426 513.301 247.923 441.115 171.863 325.222C95.8011 209.272 67.2524 51.5203 114.909 24.8305C135.536 13.3149 166.92 22.0541 189.764 43.2476C218.247 69.6692 227.679 112.846 244.542 145.649C254.188 164.434 264.797 182.745 276.314 200.582Z" fill="#FFC06E" stroke="#780116" stroke-miterlimit="10"/>
<path d="M376.807 538.188C419.179 516.913 407.136 464.906 393.414 431.821C372.53 381.339 334.113 339.286 297.256 298.122C261.158 257.862 230.048 214.94 210.332 165.812C192.943 122.37 148.417 -26.2926 68.0425 14.0655C42.4051 26.9833 32.8393 56.4584 46.6262 79.9247L305.314 519.027C319.159 542.492 351.112 551.05 376.807 538.188Z" fill="#9E2100" stroke="#780116" stroke-miterlimit="10"/>
<path d="M196.136 232.292C215.055 261.511 236.354 289.371 259.85 315.248C286.96 345.071 321.363 373.166 340.402 409.367C363.048 452.491 363.679 499.539 331.039 517.844C284.571 543.769 171.373 470.874 95.3121 354.981C19.2505 239.031 -10.7724 82.0487 35.6945 56.0661C55.8118 44.8455 86.6864 53.8796 109.361 75.1905C137.616 101.73 147.389 144.73 164.366 177.474C174.01 196.202 184.62 214.512 196.136 232.292Z" fill="#FFC06E" stroke="#780116" stroke-miterlimit="10"/>
<path opacity="0.4" d="M70.0738 314.077C69.2644 313.576 59.2455 339.967 58.6032 342.554C50.9183 374.974 60.9008 416.883 79.275 444.335C96.5334 470.09 124.35 491.027 154.843 497.835C172.531 501.827 191.328 500.361 207.305 491.272C210.931 489.206 214.5 487.142 218.187 485.304C218.187 485.304 171.864 452.66 136.172 412.736C122.641 397.567 110.182 381.463 98.9653 364.48C89.1586 349.647 70.132 314.134 70.0738 314.077Z" fill="#780116"/>
<path d="M64.6851 88.9484C89.6313 99.2286 97.0913 130.76 103.268 154.128C105.593 163.019 119.369 159.005 116.986 150.115C109.891 123.214 100.199 88.2281 71.6813 76.5203C68.1091 75.0355 64.0001 75.6209 61.9456 79.2626C60.2796 82.2108 61.1129 87.4636 64.6851 88.9484Z" fill="#FFE5B8"/>
<path d="M179.592 422.873C198.411 452.952 226.982 477.826 258.602 493.718C274.413 501.692 292.421 507.682 310.339 505.029C325.004 502.833 338.042 492.42 336.453 476.417C335.554 467.33 321.197 467.46 322.155 476.661C323.673 491.863 304.119 492.483 293.449 490.776C279.109 488.559 265.782 481.973 253.469 474.512C228.959 459.587 207.112 439.865 191.822 415.451C186.94 407.634 174.652 415 179.592 422.873Z" fill="#FFE5B8"/>
<path d="M326.596 455.117C335.804 454.959 335.56 440.651 326.352 440.808C317.144 440.965 317.388 455.274 326.596 455.117Z" fill="#FFE5B8"/>
</svg>
