<?xml version="1.0"?><svg width="640" height="480" xmlns="http://www.w3.org/2000/svg">
 <title>Star-Grey</title>
 <metadata id="metadata7">image/svg+xmlicon_star2008-05-12Jean-Victor Balinfr-FRiconstarfavouritejean.victor.balin@gmail.com</metadata>
 <g>
  <title>Layer 1</title>
  <g id="layer1">
   <rect id="rect3465" width="90.1551" height="0" x="235.325" y="174.231" fill="#7f7f7f"/>
   <path d="m220.378006,0.96915c-6.185013,-0.14403 -11.888,3.33154 -14.596008,8.89564l-59.526001,120.896212l-132.729696,19.507004c-5.96059,0.840988 -10.92696,4.993988 -12.8119,10.709991c-1.8851,5.718002 -0.36197,12.009003 3.92907,16.231003l96.627534,93.866989l-22.965103,132.64801c-1.061104,6.020996 1.442802,12.11499 6.430298,15.652008c4.989204,3.53598 11.567902,3.881989 16.897804,0.886993l119.171997,-62.424011l118.742004,62.138c5.304993,2.763 11.713989,2.296997 16.562988,-1.203979c4.850006,-3.498016 7.313019,-9.432007 6.364014,-15.338013l-22.872009,-132.131012l96.479004,-94.471985c4.557007,-4.205002 6.234985,-10.686005 4.295013,-16.574997c-1.94101,-5.889008 -7.142029,-10.100998 -13.305023,-10.775009l-133.076996,-18.761002l-59.431,-120.753503c-2.613998,-5.46978 -8.123993,-8.96473 -14.185989,-8.99833l0,0l0,-0.00001l0,0z" id="path2426" fill="#7f7f7f"/>
   <path d="m219.951797,28.301241l-58.450363,119.590162c-0.534927,1.143188 -1.46608,2.054153 -2.620728,2.564743c-0.313538,0.15683 -0.643448,0.281769 -0.981812,0.37114l-130.766855,18.762207l94.901621,92.275711c1.268669,1.274231 1.7929,3.109924 1.392227,4.861877l-22.258942,130.360931l117.20639,-61.680145c1.485367,-0.747223 3.237061,-0.743835 4.71907,0.008392l116.92041,61.481354l-22.546936,-130.680756c-0.295471,-1.664337 0.230225,-3.368805 1.412231,-4.577423l94.886414,-92.746719l-130.740326,-18.523193c-1.695038,-0.21814 -3.174133,-1.251022 -3.966888,-2.763672l-59.105515,-119.304609z" id="path2428" fill="#7f7f7f"/>
  </g>
 </g>
</svg>